<svg height="512" viewBox="0 0 44 56" width="512" xmlns="http://www.w3.org/2000/svg"><g id="031---Up-Arrow" stroke="transparent" fill="#720c0c"><path id="Shape" d="m43.013 26.217c1.2273427-1.1103929 1.3235493-3.0049919.215-4.234-19.388-20.983-18.723-21.583-20.703-21.934-1.007996-.1768357-2.0369844.16866955-2.734.918-1.725 1.891 4.268-4.729-19.016 21.012-1.10864307 1.2299402-1.01385339 3.1248397.212 4.238 1.24486632 1.0658272 3.10571518.9727408 4.238-.212l12.033-13.3c.2772946-.3069103.7149235-.4114288 1.1009792-.2629458.3860556.1484829.6408554.5193202.6410208.9329458v32.625c0 1.6568542 1.3431458 3 3 3s3-1.3431458 3-3v-32.625c.0001654-.4136256.2549652-.7844629.6410208-.9329458.3860557-.148483.8236846-.0439645 1.1009792.2629458l12.033 13.3c1.1131603 1.2258534 3.0080598 1.3206431 4.238.212z"/><path id="Shape" d="m27 19.995 10 11.056v-4.027l-10-11.053z"/><path id="Shape" d="m39 28.563v4.651c.8788117.7860901 2.1366072.9845023 3.2147281.5071104 1.0781208-.477392 1.7766269-1.5420545 1.7852719-2.7211104v-3.039c-1.4358273 1.0884626-3.3468492 1.3185497-5 .602z"/><path id="Shape" d="m19 49.974v3.026c0 1.6568542 1.3431458 3 3 3s3-1.3431458 3-3v-3.026c-1.766197 1.3676345-4.233803 1.3676345-6 0z"/><path id="Shape" d="m0 27.966v3.024c.01024188 1.1782543.70816028 2.2418004 1.78500099 2.7201331 1.07684071.4783326 2.33387473.2831763 3.21499901-.4991331v-4.64c-1.65147938.7306688-3.5704518.4984732-5-.605z"/><path id="Shape" d="m7 31.051 10-11.056v-4.024l-10 11.053z"/></g></svg>